<svg xmlns="http://www.w3.org/2000/svg" xmlns:xlink="http://www.w3.org/1999/xlink" width="500" zoomAndPan="magnify" viewBox="0 0 375 374.999991" height="500" preserveAspectRatio="xMidYMid meet" version="1.2"><g id="024dfc8f8a"><rect x="0" width="375" y="0" height="374.999991" style="fill:#ffffff;fill-opacity:1;stroke:none;"/><rect x="0" width="375" y="0" height="374.999991" style="fill:#eb3e04;fill-opacity:1;stroke:none;"/><path style=" stroke:none;fill-rule:evenodd;fill:#ffffff;fill-opacity:1;" d="M 176.527344 38.125 C 163.277344 38.875 150.269531 41.367188 135.640625 45.96875 C 124.507812 49.46875 112.082031 55.613281 100.664062 63.261719 C 94.246094 67.5625 94.503906 67.371094 88.851562 71.910156 C 84.097656 75.722656 70.816406 88.78125 67.796875 92.613281 C 66.726562 93.96875 65.765625 95.148438 65.65625 95.238281 C 65.546875 95.332031 64.675781 96.511719 63.714844 97.867188 C 62.757812 99.222656 61.847656 100.378906 61.695312 100.441406 C 61.542969 100.5 61.417969 100.703125 61.417969 100.894531 C 61.417969 101.082031 60.921875 101.929688 60.3125 102.777344 C 53.027344 112.914062 41.097656 137.628906 42.15625 140.386719 C 42.347656 140.882812 42.628906 140.941406 44.019531 140.753906 C 44.921875 140.636719 45.859375 140.460938 46.105469 140.367188 C 46.347656 140.273438 47.402344 138.027344 48.449219 135.371094 C 49.496094 132.714844 51.796875 127.636719 53.5625 124.082031 C 61.738281 107.636719 68.84375 97.648438 81.113281 85.375 C 100.207031 66.265625 122.71875 53.554688 148.777344 47.164062 C 160.585938 44.269531 170.285156 43.023438 182.765625 42.792969 C 201.625 42.449219 216.882812 44.710938 234.328125 50.4375 C 239.976562 52.292969 240.597656 52.53125 247.957031 55.753906 C 257.84375 60.074219 269.460938 67.109375 278.171875 74.046875 C 280.25 75.703125 282.167969 77.269531 282.441406 77.53125 C 282.710938 77.789062 284.042969 78.953125 285.394531 80.109375 C 290.792969 84.726562 299.214844 93.84375 304.839844 101.152344 C 309.769531 107.558594 315.363281 116.714844 319.683594 125.445312 C 322.230469 130.582031 323.214844 131.890625 325.367188 132.96875 C 327.101562 133.839844 327.761719 133.851562 327.761719 133.011719 C 327.761719 131.332031 321.230469 117.761719 317.246094 111.167969 C 310.199219 99.496094 304.589844 92.382812 294.445312 82.257812 C 288.652344 76.46875 284.121094 72.515625 278.664062 68.480469 C 276.496094 66.878906 274.207031 65.175781 273.574219 64.703125 C 272.941406 64.226562 270.796875 62.828125 268.8125 61.59375 C 266.824219 60.363281 264.578125 58.957031 263.824219 58.464844 C 261.832031 57.175781 249.671875 51.164062 245.820312 49.5625 C 238.394531 46.480469 223.535156 41.972656 216.59375 40.699219 C 203.652344 38.328125 189.304688 37.40625 176.527344 38.125 M 173.734375 59.210938 C 173.015625 59.574219 172.902344 59.867188 172.824219 61.585938 C 172.773438 62.664062 172.933594 66.253906 173.179688 69.558594 C 173.527344 74.246094 173.746094 75.6875 174.164062 76.105469 C 174.941406 76.882812 181.214844 76.734375 181.835938 75.921875 C 182.382812 75.203125 182.367188 74.207031 181.792969 73.453125 C 181.410156 72.945312 180.972656 72.863281 179.101562 72.960938 L 176.867188 73.070312 L 176.753906 71.363281 L 176.640625 69.652344 L 178.300781 69.433594 C 180.257812 69.171875 180.714844 68.738281 180.570312 67.265625 L 180.46875 66.175781 L 178.398438 66.078125 L 176.332031 65.980469 L 176.429688 64.105469 L 176.527344 62.234375 L 178.207031 62.066406 C 179.128906 61.972656 180.128906 61.695312 180.421875 61.449219 C 181.054688 60.925781 181.128906 59.742188 180.566406 59.179688 C 180.035156 58.648438 174.804688 58.667969 173.734375 59.210938 M 195.199219 59.367188 C 194.875 59.578125 193.886719 66.589844 193.242188 73.257812 C 193.011719 75.644531 193.453125 76.519531 194.890625 76.519531 C 196.15625 76.519531 196.664062 75.558594 197.050781 72.417969 C 197.253906 70.800781 197.453125 69.441406 197.5 69.394531 C 197.546875 69.347656 198.363281 69.402344 199.316406 69.515625 L 201.050781 69.722656 L 200.839844 72.054688 C 200.726562 73.335938 200.558594 74.773438 200.464844 75.25 C 200.261719 76.328125 201.050781 77.179688 202.25 77.171875 C 203.628906 77.164062 203.847656 76.839844 204.09375 74.386719 C 204.222656 73.121094 204.6875 69.601562 205.125 66.5625 C 205.976562 60.632812 205.910156 59.945312 204.464844 59.582031 C 203.589844 59.363281 202.320312 59.910156 202.28125 60.523438 C 202.144531 62.769531 201.414062 66.167969 201.074219 66.144531 C 200.847656 66.125 199.996094 66.085938 199.175781 66.058594 L 197.6875 66.011719 L 197.910156 63.0625 C 198.074219 60.890625 198.023438 59.984375 197.714844 59.613281 C 197.28125 59.09375 195.84375 58.949219 195.199219 59.367188 M 165.195312 59.984375 C 164.746094 60.050781 162.675781 60.339844 160.597656 60.625 C 158.523438 60.910156 156.636719 61.292969 156.410156 61.480469 C 155.84375 61.953125 155.898438 63.546875 156.5 64.046875 C 156.851562 64.335938 157.613281 64.394531 159.089844 64.246094 L 161.179688 64.03125 L 161.402344 65.59375 C 163.050781 77.167969 163.5 78.492188 165.535156 77.78125 C 166.074219 77.59375 166.59375 77.308594 166.691406 77.148438 C 166.792969 76.988281 166.507812 74.675781 166.0625 72.007812 C 165.613281 69.34375 165.148438 66.3125 165.019531 65.273438 L 164.792969 63.382812 L 166.070312 63.382812 C 168.308594 63.382812 169.363281 62.074219 168.46875 60.40625 C 168.132812 59.777344 167.289062 59.667969 165.195312 59.984375 M 214.5625 62.554688 C 213.324219 64.105469 209.480469 71.023438 208.050781 74.277344 C 206.945312 76.789062 206.910156 76.96875 207.4375 77.546875 C 207.742188 77.886719 208.414062 78.164062 208.933594 78.164062 C 209.6875 78.164062 209.980469 77.929688 210.4375 76.976562 L 211.003906 75.785156 L 212.921875 75.988281 C 215.3125 76.238281 215.441406 76.320312 215.453125 77.605469 C 215.464844 78.761719 216.03125 79.707031 216.773438 79.8125 C 218.921875 80.125 219.167969 79.132812 218.699219 72.097656 C 218.496094 69.019531 218.289062 66.058594 218.234375 65.519531 C 218.183594 64.976562 218.128906 64.195312 218.105469 63.78125 C 218.066406 62.917969 216.703125 61.414062 215.964844 61.414062 C 215.695312 61.414062 215.0625 61.925781 214.5625 62.554688 M 147.792969 63.695312 C 144.660156 64.785156 143.5 67.195312 144.761719 70.011719 C 145.652344 72 146.324219 72.480469 149.222656 73.203125 C 152.570312 74.039062 153.375 74.582031 153.375 75.996094 C 153.375 76.601562 153.175781 77.261719 152.933594 77.464844 C 152.105469 78.152344 150.554688 78.25 149.460938 77.683594 C 148.210938 77.039062 147.390625 77.234375 146.808594 78.316406 C 146.445312 78.996094 146.464844 79.242188 146.921875 79.941406 C 147.996094 81.582031 151.402344 81.789062 154.175781 80.382812 C 156.304688 79.304688 156.984375 78.300781 156.984375 76.234375 C 156.984375 73.589844 155.507812 71.5 153.226562 70.914062 C 149.316406 69.910156 148.441406 69.574219 148.09375 68.917969 C 147.820312 68.40625 147.820312 68.015625 148.09375 67.414062 C 148.414062 66.714844 148.632812 66.621094 149.6875 66.746094 C 150.359375 66.824219 151.164062 67 151.472656 67.136719 C 151.855469 67.308594 152.289062 67.125 152.867188 66.546875 C 153.585938 65.832031 153.652344 65.601562 153.335938 64.914062 C 152.605469 63.308594 150.34375 62.808594 147.792969 63.695312 M 228.191406 65.460938 C 227.953125 65.699219 227.210938 67.289062 226.539062 68.992188 C 221.921875 80.691406 222.0625 80.265625 222.496094 80.953125 C 223.078125 81.878906 224.464844 82.328125 225.105469 81.796875 C 225.382812 81.566406 226.238281 79.761719 227 77.785156 L 228.394531 74.191406 L 229 78.558594 C 229.65625 83.28125 230.179688 84.496094 231.628906 84.667969 C 232.777344 84.804688 233.246094 84.027344 235.402344 78.371094 C 238.066406 71.386719 238.75 69.316406 238.554688 68.8125 C 238.335938 68.242188 236.609375 67.617188 235.949219 67.871094 C 235.292969 68.125 234.824219 69.125 233.496094 73.152344 C 232.886719 75.003906 232.292969 76.519531 232.179688 76.519531 C 232.070312 76.519531 231.796875 74.300781 231.578125 71.585938 C 231.359375 68.871094 231.09375 66.421875 230.984375 66.140625 C 230.804688 65.675781 229.597656 65.027344 228.910156 65.027344 C 228.753906 65.027344 228.433594 65.222656 228.191406 65.460938 M 213.777344 69.847656 C 213.234375 71.054688 212.867188 72.234375 212.957031 72.472656 C 213.050781 72.710938 213.609375 72.90625 214.207031 72.90625 L 215.285156 72.90625 L 215.378906 70.28125 C 215.441406 68.546875 215.355469 67.652344 215.117188 67.652344 C 214.921875 67.652344 214.316406 68.640625 213.777344 69.847656 M 132.058594 69.179688 C 131.328125 69.691406 131.300781 69.847656 131.511719 72.171875 C 131.945312 76.964844 133.34375 86.148438 133.707031 86.585938 C 134.230469 87.210938 135.441406 87.136719 136.070312 86.441406 C 136.433594 86.039062 136.550781 85.488281 136.4375 84.714844 C 136.226562 83.269531 136.40625 83.050781 138.582031 82.128906 L 140.375 81.367188 L 141.375 82.558594 C 142.496094 83.894531 143.457031 84.066406 144.34375 83.085938 C 145.148438 82.199219 144.921875 81.773438 141.183594 77.113281 C 139.488281 75 137.289062 72.234375 136.296875 70.964844 C 134.34375 68.476562 133.542969 68.136719 132.058594 69.179688 M 120.386719 75.054688 C 115.328125 77.804688 114.949219 78.0625 114.949219 78.769531 C 114.949219 79.09375 115.300781 79.691406 115.726562 80.09375 L 116.507812 80.824219 L 118.378906 79.90625 C 119.980469 79.121094 120.292969 79.058594 120.535156 79.476562 C 120.691406 79.75 122.210938 82.40625 123.910156 85.386719 C 125.722656 88.566406 127.230469 90.851562 127.558594 90.914062 C 128.378906 91.078125 129.726562 90.074219 129.726562 89.300781 C 129.726562 88.933594 128.9375 87.277344 127.96875 85.617188 C 124.785156 80.144531 123.441406 77.515625 123.652344 77.175781 C 123.765625 76.992188 124.441406 76.542969 125.152344 76.179688 C 126 75.75 126.445312 75.296875 126.445312 74.871094 C 126.445312 74.144531 125.351562 72.902344 124.71875 72.917969 C 124.492188 72.921875 122.542969 73.882812 120.386719 75.054688 M 244.839844 73.589844 C 241.898438 75.054688 238.488281 79.609375 237.75 83.054688 C 237.078125 86.207031 238.234375 88.367188 241.199219 89.5 C 243.125 90.238281 245.527344 90.027344 246.96875 89 C 248.277344 88.070312 250.585938 84.582031 250.585938 83.539062 C 250.585938 82.242188 247.304688 80.742188 246.003906 81.4375 C 245.195312 81.867188 245.089844 83.464844 245.820312 84.074219 C 246.511719 84.644531 246.4375 85.15625 245.554688 85.988281 C 244.734375 86.757812 243.089844 86.933594 242.023438 86.363281 C 241.269531 85.957031 241.164062 84.074219 241.785156 82.003906 C 242.296875 80.304688 245.367188 76.949219 246.761719 76.570312 C 248.023438 76.226562 248.863281 76.605469 249 77.582031 C 249.132812 78.507812 250.796875 79.378906 251.542969 78.914062 C 251.828125 78.738281 252.257812 78.195312 252.496094 77.710938 C 253.144531 76.386719 252.605469 75.214844 250.773438 73.976562 C 248.886719 72.699219 246.886719 72.566406 244.839844 73.589844 M 135.101562 76.074219 C 135.21875 76.910156 135.3125 78.039062 135.3125 78.578125 C 135.3125 79.507812 135.367188 79.546875 136.367188 79.347656 C 136.949219 79.230469 137.554688 79.003906 137.714844 78.84375 C 137.988281 78.570312 135.53125 74.550781 135.089844 74.550781 C 134.980469 74.550781 134.988281 75.234375 135.101562 76.074219 M 257.972656 81.890625 C 256.996094 82.34375 255.597656 83.449219 254.523438 84.613281 C 250.789062 88.65625 249.703125 92.90625 251.757812 95.441406 C 253.265625 97.300781 254.308594 97.941406 256.121094 98.117188 C 258.265625 98.324219 260.039062 97.480469 262.308594 95.167969 C 265.660156 91.753906 267.238281 87.921875 266.371094 85.292969 C 265.882812 83.816406 264.203125 82.246094 262.445312 81.625 C 260.53125 80.949219 259.914062 80.984375 257.972656 81.890625 M 102.34375 87.382812 C 100.746094 88.691406 99.515625 89.953125 99.515625 90.28125 C 99.515625 91.269531 108.246094 101.941406 109.539062 102.53125 C 110.4375 102.9375 110.671875 102.8125 113.796875 100.265625 C 115.957031 98.507812 116.285156 97.816406 115.417969 96.859375 C 114.601562 95.953125 113.890625 96.066406 112.179688 97.375 C 111.351562 98.007812 110.566406 98.523438 110.429688 98.523438 C 110.128906 98.523438 108.382812 96.359375 108.382812 95.988281 C 108.382812 95.835938 108.898438 95.226562 109.53125 94.628906 C 110.835938 93.398438 110.972656 92.574219 110.023438 91.628906 C 109.144531 90.746094 108.75 90.796875 107.394531 91.957031 C 106.761719 92.496094 106.144531 92.941406 106.015625 92.941406 C 105.691406 92.941406 104.113281 90.820312 104.113281 90.382812 C 104.113281 90.179688 104.777344 89.558594 105.589844 89 C 106.59375 88.308594 107.066406 87.75 107.066406 87.25 C 107.066406 86.359375 106.203125 85.058594 105.609375 85.058594 C 105.371094 85.058594 103.902344 86.105469 102.34375 87.382812 M 257.554688 86.339844 C 255.867188 87.976562 254.617188 90.109375 254.34375 91.824219 C 254.152344 93.03125 254.222656 93.242188 255.042969 93.886719 C 255.738281 94.433594 256.203125 94.554688 256.953125 94.390625 C 259.269531 93.882812 262.355469 90.171875 262.652344 87.535156 C 262.863281 85.6875 262.269531 85.085938 260.230469 85.070312 C 259.089844 85.0625 258.664062 85.265625 257.554688 86.339844 M 179.152344 90.199219 C 170.621094 90.882812 167.6875 91.347656 160.761719 93.125 C 154.585938 94.707031 148.570312 96.820312 143.910156 99.039062 C 142.226562 99.839844 140.785156 100.496094 140.703125 100.496094 C 140.433594 100.496094 133.613281 104.441406 131.261719 105.957031 C 129.117188 107.34375 121.5 113.054688 120.171875 114.273438 C 117.503906 116.722656 112.1875 122.148438 110.472656 124.175781 C 105.359375 130.214844 101.195312 136.839844 101.640625 138.230469 C 101.992188 139.339844 102.769531 139.90625 103.957031 139.90625 C 105.1875 139.90625 105.046875 140.058594 108 135.472656 C 113.246094 127.320312 120.671875 119.4375 128.578125 113.617188 C 135.355469 108.632812 144.089844 103.753906 150.910156 101.148438 C 151.996094 100.734375 153.324219 100.210938 153.867188 99.984375 C 156.804688 98.753906 166.496094 96.445312 172.007812 95.65625 C 177.695312 94.84375 194.433594 94.855469 199.679688 95.675781 C 211.722656 97.554688 224.195312 101.734375 233.179688 106.902344 C 244.800781 113.582031 254.902344 122.507812 262.632812 132.925781 C 265.167969 136.34375 265.453125 136.621094 266.464844 136.621094 C 268.300781 136.621094 269.300781 134.917969 268.441406 133.257812 C 265.253906 127.09375 254.03125 115.527344 244.34375 108.417969 C 238.492188 104.125 228.824219 99.015625 221.277344 96.230469 C 216.390625 94.425781 206.625 91.929688 201.441406 91.15625 C 194.671875 90.148438 185 89.734375 179.152344 90.199219 M 269.65625 92.859375 C 266.648438 96.125 264.304688 99.15625 263.523438 100.785156 C 262.054688 103.855469 265.191406 108.375 268.785156 108.375 C 269.445312 108.375 270.585938 108.070312 271.3125 107.699219 C 272.984375 106.847656 281.132812 98.886719 281.128906 98.113281 C 281.125 97.320312 279.957031 96.226562 279.117188 96.226562 C 278.660156 96.226562 277.199219 97.507812 274.832031 99.984375 C 269.949219 105.101562 268.722656 105.777344 267.171875 104.226562 C 265.800781 102.855469 267.152344 100.515625 272.292969 95.359375 C 275.546875 92.097656 275.714844 91.601562 273.933594 90.550781 C 273.410156 90.238281 272.828125 89.984375 272.640625 89.984375 C 272.457031 89.984375 271.113281 91.277344 269.65625 92.859375 M 94.140625 94.605469 C 93.664062 94.980469 93.273438 95.582031 93.273438 95.945312 C 93.273438 96.308594 94.113281 97.480469 95.136719 98.558594 L 97.003906 100.511719 L 95.726562 101.816406 C 95.027344 102.535156 94.292969 103.121094 94.097656 103.121094 C 93.902344 103.121094 92.941406 102.308594 91.960938 101.316406 C 90.980469 100.324219 90.007812 99.507812 89.800781 99.507812 C 89.117188 99.507812 87.691406 100.859375 87.691406 101.503906 C 87.691406 102.125 89.933594 104.5 95.621094 109.902344 C 99.222656 113.320312 99.523438 113.484375 100.628906 112.613281 C 102.050781 111.496094 101.75 110.691406 98.9375 108.066406 L 96.394531 105.695312 L 97.542969 104.714844 C 99.546875 103.003906 99.46875 102.992188 102.140625 105.449219 C 103.496094 106.695312 104.761719 107.714844 104.957031 107.714844 C 105.464844 107.722656 106.742188 106.285156 106.726562 105.726562 C 106.714844 105.171875 95.886719 93.925781 95.363281 93.925781 C 95.167969 93.925781 94.613281 94.234375 94.140625 94.605469 M 283.304688 101.832031 C 282.21875 102.6875 282.21875 103.136719 283.320312 104.445312 C 284 105.25 284.121094 105.613281 283.859375 106.03125 C 283.523438 106.574219 279.195312 110.53125 275.902344 113.3125 C 274.445312 114.546875 274.179688 114.925781 274.371094 115.527344 C 274.683594 116.515625 275.460938 117.242188 276.203125 117.242188 C 276.539062 117.242188 278.964844 115.324219 281.59375 112.972656 C 284.226562 110.625 286.476562 108.703125 286.59375 108.703125 C 286.714844 108.703125 287.316406 109.296875 287.933594 110.019531 C 289.238281 111.539062 289.910156 111.652344 290.972656 110.515625 C 291.558594 109.894531 291.667969 109.546875 291.441406 109.050781 C 291.070312 108.246094 284.765625 101.152344 284.421875 101.152344 C 284.285156 101.152344 283.78125 101.457031 283.304688 101.832031 M 84.570312 105.140625 C 83.589844 105.636719 77.722656 112.953125 77.695312 113.710938 C 77.683594 114.070312 78.089844 114.679688 78.601562 115.066406 L 79.527344 115.765625 L 80.828125 114.371094 C 81.546875 113.601562 82.324219 112.972656 82.5625 112.972656 C 82.800781 112.972656 85.140625 114.726562 87.765625 116.863281 C 90.390625 119.003906 92.765625 120.84375 93.046875 120.953125 C 93.777344 121.230469 95.246094 119.96875 95.246094 119.066406 C 95.246094 118.542969 94.773438 117.957031 93.746094 117.199219 C 91.289062 115.386719 85.0625 109.9375 85.0625 109.597656 C 85.0625 109.425781 85.507812 108.777344 86.046875 108.164062 C 87.222656 106.828125 87.296875 105.96875 86.304688 105.277344 C 85.472656 104.691406 85.457031 104.691406 84.570312 105.140625 M 193.441406 108.242188 C 190.859375 109.71875 188.519531 110.140625 183.09375 110.113281 C 180.386719 110.097656 175.96875 109.847656 173.28125 109.558594 C 170.59375 109.269531 167.316406 109.035156 166 109.035156 C 154.25 109.035156 144.886719 114.632812 144.265625 122.03125 C 144.078125 124.261719 144.703125 126.121094 146.257812 127.960938 C 148.066406 130.097656 151.65625 130.96875 154.226562 129.894531 C 155.210938 129.484375 155.375 129.273438 155.285156 128.503906 C 155.195312 127.746094 154.988281 127.566406 154 127.40625 C 152.246094 127.125 150.808594 125.960938 150.558594 124.621094 C 150.054688 121.929688 151.492188 119.507812 154.589844 117.820312 C 157.085938 116.464844 164.628906 115.144531 165.9375 115.839844 C 166.074219 115.910156 165.828125 116.441406 165.394531 117.015625 C 164.109375 118.726562 162.882812 123.613281 161.234375 133.621094 C 160.6875 136.9375 159.964844 141 159.628906 142.652344 C 159.292969 144.300781 158.828125 147.023438 158.597656 148.699219 C 158.1875 151.640625 158.195312 151.769531 158.859375 152.429688 C 159.367188 152.941406 159.957031 153.117188 161.164062 153.117188 C 163.316406 153.117188 164.789062 152.316406 165.433594 150.800781 C 166.070312 149.292969 167.84375 140.675781 169.160156 132.679688 C 170.394531 125.179688 171.171875 121.5625 172.066406 119.191406 C 173.0625 116.539062 173.636719 116.046875 175.8125 115.972656 C 176.808594 115.941406 177.699219 116.03125 177.789062 116.175781 C 177.875 116.316406 177.738281 117.242188 177.480469 118.234375 C 176.855469 120.628906 175.941406 126.058594 174.710938 134.648438 C 174.15625 138.535156 173.566406 142.300781 173.398438 143.023438 C 173.230469 143.746094 173.089844 145.421875 173.085938 146.746094 C 173.078125 148.972656 173.148438 149.222656 174.039062 150.109375 C 175.285156 151.359375 176.964844 151.421875 178.117188 150.269531 C 178.953125 149.4375 180.488281 145.128906 182.101562 139.082031 C 183.15625 135.144531 185.054688 131.148438 186.300781 130.246094 C 187.105469 129.664062 187.261719 129.644531 187.699219 130.082031 C 188.136719 130.519531 188.082031 131.140625 187.210938 135.640625 C 185.9375 142.210938 185.703125 144.949219 186.269531 146.625 C 186.867188 148.398438 188.4375 149.429688 190.542969 149.429688 C 193.511719 149.429688 196.066406 147.855469 197.949219 144.875 C 198.59375 143.855469 199.167969 142.964844 199.226562 142.894531 C 199.285156 142.824219 200.039062 143.511719 200.902344 144.425781 C 203.382812 147.046875 206.90625 147.773438 211.035156 146.519531 C 214.769531 145.382812 217.792969 142.964844 220.511719 138.9375 C 222.09375 136.597656 224.058594 132.492188 223.925781 131.808594 C 223.75 130.929688 222.078125 129.851562 221.476562 130.230469 C 221.195312 130.40625 220.195312 132.015625 219.257812 133.800781 C 217.496094 137.160156 215.550781 139.492188 213.714844 140.441406 C 213.132812 140.742188 211.695312 141.058594 210.519531 141.140625 C 207.800781 141.335938 206.929688 140.75 206.585938 138.5 C 206.460938 137.664062 206.441406 136.859375 206.546875 136.714844 C 206.65625 136.574219 207.40625 136.414062 208.21875 136.359375 C 211.671875 136.136719 215.464844 132.917969 217.78125 128.242188 C 218.890625 126.007812 219.140625 125.164062 219.128906 123.703125 C 219.105469 121.492188 218.421875 120.105469 216.832031 119.078125 C 215.273438 118.070312 213.445312 117.789062 211.230469 118.214844 C 208.796875 118.679688 207.460938 119.382812 205.371094 121.292969 C 201.792969 124.5625 199.679688 128.726562 198.710938 134.398438 C 198.085938 138.058594 197.425781 139.53125 195.472656 141.628906 C 194.425781 142.753906 194.167969 142.757812 193.746094 141.65625 C 193.398438 140.734375 193.410156 140.644531 195.410156 131.710938 C 195.953125 129.28125 196.394531 126.421875 196.394531 125.355469 C 196.394531 123.613281 196.292969 123.324219 195.375 122.464844 C 194.550781 121.695312 194.066406 121.515625 192.832031 121.519531 C 189.84375 121.535156 187.527344 123.210938 184.230469 127.742188 C 183.304688 129.015625 182.425781 129.980469 182.28125 129.890625 C 181.949219 129.6875 182.324219 127.980469 183.566406 124.054688 C 184.089844 122.386719 184.769531 120.113281 185.074219 119.003906 L 185.625 116.984375 L 188.078125 116.621094 C 192.632812 115.941406 195.238281 114.226562 196.105469 111.335938 C 196.421875 110.285156 196.414062 109.75 196.066406 108.703125 C 195.828125 107.980469 195.472656 107.394531 195.277344 107.394531 C 195.078125 107.398438 194.253906 107.78125 193.441406 108.242188 M 210.539062 123.738281 C 209.714844 124.597656 208.703125 125.992188 208.289062 126.835938 C 207.5 128.441406 206.492188 132.601562 206.773438 133.0625 C 207.039062 133.492188 209.296875 132.183594 210.660156 130.816406 C 213.019531 128.441406 214.511719 123.910156 213.320312 122.722656 C 212.5 121.902344 212.183594 122.019531 210.539062 123.738281 M 116.355469 140.363281 C 109.992188 142.429688 103.734375 150.8125 98.035156 164.902344 C 96.542969 168.589844 92.246094 181.460938 91.796875 183.582031 C 91.417969 185.394531 91.140625 185.554688 88.390625 185.5625 C 85.472656 185.570312 75.003906 186.425781 74.574219 186.691406 C 73.949219 187.078125 74.0625 185.929688 75.082031 181.472656 C 79.632812 161.59375 82.707031 152.34375 85.960938 148.730469 C 87.457031 147.070312 87.300781 145.347656 85.472656 143.433594 C 84.304688 142.210938 83.101562 142.269531 80.015625 143.691406 C 77.574219 144.820312 74.433594 145.890625 72.417969 146.277344 C 71.878906 146.382812 67.933594 146.539062 63.652344 146.625 C 52.46875 146.851562 47.097656 147.613281 41.433594 149.777344 C 32.980469 153.003906 27.3125 160.277344 27.195312 168.042969 C 27.09375 174.851562 32.09375 180.589844 39.484375 182.148438 C 42.15625 182.710938 43.652344 182.601562 47.070312 181.582031 C 51.304688 180.320312 53.351562 178.296875 52.539062 176.167969 C 52.234375 175.367188 52.101562 175.308594 50.984375 175.515625 C 46.722656 176.308594 45.1875 176.136719 43.535156 174.683594 C 42 173.339844 41.242188 171.25 41.476562 169.003906 C 41.707031 166.753906 42.304688 165.617188 44.316406 163.605469 C 46.929688 160.992188 51.714844 159.199219 65.617188 155.625 C 67.113281 155.238281 68.398438 154.988281 68.476562 155.0625 C 68.554688 155.140625 68.269531 156.304688 67.84375 157.652344 L 65.730469 164.371094 C 64.992188 166.71875 64.003906 170.117188 63.539062 171.925781 C 63.074219 173.730469 62.558594 175.652344 62.398438 176.195312 C 62.234375 176.734375 61.492188 179.46875 60.75 182.269531 C 60.007812 185.070312 59.300781 187.460938 59.179688 187.585938 C 59.054688 187.710938 57.105469 188.125 54.847656 188.507812 C 50.117188 189.308594 43.886719 190.847656 40.5625 192.039062 C 31.871094 195.152344 25.203125 201.078125 23.019531 207.640625 C 21.316406 212.757812 21.011719 216.203125 21.863281 220.691406 C 22.820312 225.746094 24.910156 229.148438 28.535156 231.550781 C 32.039062 233.875 33.804688 234.304688 39.90625 234.304688 C 44.828125 234.304688 45.324219 234.246094 47.707031 233.390625 C 52.710938 231.59375 57.054688 228.554688 60.453125 224.472656 C 61.625 223.066406 64.625 218.027344 66.070312 215.035156 C 67.808594 211.445312 70.167969 204.5 71.28125 199.707031 C 71.800781 197.46875 72.34375 195.527344 72.484375 195.398438 C 72.878906 195.046875 80.398438 194.136719 84.980469 193.886719 C 88.484375 193.695312 89.003906 193.730469 89.003906 194.171875 C 89.003906 194.75 88.203125 198.890625 87.527344 201.808594 C 86.238281 207.386719 86.0625 218.289062 87.207031 222.007812 C 88.757812 227.039062 91.414062 230.324219 95.6875 232.492188 C 97.671875 233.5 98.234375 233.625 101.289062 233.761719 C 105.789062 233.960938 108.425781 233.160156 110.6875 230.898438 C 113.421875 228.164062 113.359375 224.640625 110.574219 224.632812 C 110 224.628906 108.84375 224.417969 108.003906 224.164062 C 103.261719 222.726562 101.894531 220.375 101.585938 213.140625 C 101.261719 205.433594 104.015625 189.445312 107.730469 177.507812 C 108.816406 174.023438 111.074219 167.664062 111.34375 167.328125 C 111.492188 167.144531 111.902344 166.257812 112.257812 165.355469 C 114.957031 158.507812 121.414062 147.726562 124.429688 145.027344 C 125.660156 143.925781 125.171875 142.203125 123.257812 140.890625 C 121.835938 139.917969 118.515625 139.664062 116.355469 140.363281 M 330.269531 145.640625 C 325.886719 146.886719 324.054688 149.238281 317.882812 161.535156 L 313.867188 169.539062 L 312.269531 170.203125 C 310.929688 170.761719 310.378906 171.289062 308.816406 173.53125 C 306.949219 176.203125 302.566406 180.828125 299.894531 182.945312 C 296.867188 185.34375 289.925781 189.207031 289.464844 188.746094 C 289.210938 188.492188 289.871094 184.421875 290.667969 181.285156 C 291.015625 179.929688 291.671875 176.605469 292.128906 173.894531 C 292.585938 171.1875 293.128906 168.230469 293.335938 167.328125 C 293.542969 166.425781 293.75 165.339844 293.796875 164.917969 C 293.84375 164.492188 294.035156 163.460938 294.222656 162.617188 C 294.515625 161.285156 294.792969 159.25 295.421875 153.863281 C 295.667969 151.753906 295.375 151.5625 291.894531 151.566406 C 286.878906 151.574219 285.882812 152.558594 284.914062 158.484375 C 284.144531 163.195312 283.546875 165.832031 282.238281 170.28125 C 280.632812 175.757812 280.246094 176.808594 278.75 179.808594 C 275.671875 185.980469 272.960938 187.214844 271.929688 182.914062 C 271.535156 181.277344 271.574219 180.484375 272.203125 177.34375 C 272.402344 176.351562 273.03125 173.023438 273.601562 169.953125 C 274.171875 166.882812 275.136719 162.398438 275.746094 159.984375 C 276.359375 157.574219 276.855469 155.394531 276.855469 155.140625 C 276.855469 154.890625 276.542969 154.371094 276.160156 153.988281 C 275.523438 153.351562 275.242188 153.308594 272.796875 153.515625 C 266.445312 154.046875 266.058594 154.464844 264.664062 162.378906 C 264.34375 164.191406 264.019531 166.007812 263.691406 167.820312 C 263.472656 169.023438 263.261719 170.226562 263.0625 171.433594 C 262.898438 172.425781 262.59375 174.253906 262.390625 175.496094 C 261.523438 180.710938 254.578125 189.5 249.597656 191.679688 C 247.414062 192.636719 246.78125 192.777344 244.667969 192.777344 C 240.675781 192.777344 239.292969 191.523438 238.875 187.523438 L 238.671875 185.609375 L 240.277344 185.390625 C 244.421875 184.828125 248.472656 182.953125 251.078125 180.394531 C 253.253906 178.25 254.855469 176.464844 254.855469 176.175781 C 254.855469 176.070312 255.214844 175.515625 255.652344 174.9375 C 256.777344 173.464844 258.6875 169.308594 259.230469 167.164062 C 260.359375 162.679688 258.640625 158.335938 255.015625 156.503906 C 249.957031 153.941406 242.941406 155.636719 237.546875 160.71875 C 232.558594 165.421875 229.527344 170.558594 227.632812 177.535156 C 227.109375 179.453125 226.449219 181.257812 226.164062 181.542969 C 225.847656 181.859375 224.871094 182.117188 223.679688 182.203125 C 221.832031 182.339844 221.703125 182.300781 221.523438 181.570312 C 221.394531 181.046875 221.972656 179.238281 223.292969 176.015625 C 225.761719 169.996094 227.050781 165.09375 226.863281 162.433594 C 226.746094 160.796875 226.578125 160.371094 225.78125 159.683594 C 224.949219 158.96875 224.621094 158.894531 222.957031 159.042969 C 217.410156 159.546875 213.476562 164.613281 212.117188 173.007812 C 211.8125 174.886719 211.820312 176.097656 212.144531 178.59375 C 212.539062 181.625 212.523438 181.863281 211.839844 183.582031 C 209.199219 190.214844 204.9375 196.390625 203.003906 196.390625 C 202.675781 196.390625 202.128906 196.078125 201.785156 195.695312 C 200.660156 194.449219 201.089844 185.792969 202.609375 178.984375 C 202.792969 178.171875 203.234375 175.792969 203.597656 173.691406 C 203.957031 171.59375 204.640625 168.28125 205.109375 166.332031 L 205.960938 162.789062 L 205.273438 162.101562 C 204.6875 161.515625 204.191406 161.414062 201.886719 161.417969 C 196.917969 161.421875 194.574219 162.683594 193.628906 165.871094 C 193.152344 167.464844 191.761719 175.75 191.316406 179.640625 C 191.222656 180.457031 190.996094 182.007812 190.816406 183.089844 C 190.636719 184.175781 190.484375 185.726562 190.484375 186.539062 C 190.476562 188.375 188.929688 191.257812 185.902344 195.089844 C 183.496094 198.136719 181.933594 199.347656 180.410156 199.347656 C 178.316406 199.347656 177.890625 197.375 178.824219 192.019531 C 179.09375 190.472656 179.691406 188.199219 180.152344 186.96875 C 180.613281 185.738281 181.558594 183.105469 182.253906 181.121094 C 182.949219 179.132812 183.832031 176.652344 184.21875 175.605469 C 186.742188 168.742188 184.492188 166.894531 175.503906 168.445312 C 171.148438 169.199219 169.082031 169.300781 168.171875 168.816406 C 167.671875 168.546875 167.621094 168.28125 167.851562 167.089844 C 168.609375 163.179688 167.828125 161.035156 165.292969 160.0625 C 162.636719 159.042969 159.609375 160.34375 158.332031 163.058594 C 156.644531 166.652344 156.925781 169.480469 159.226562 172.023438 L 160.5 173.433594 L 159.925781 175.851562 C 158.488281 181.882812 155.652344 190.53125 153.949219 194.09375 C 153.144531 195.769531 150.265625 199.851562 149.039062 201.054688 C 146.867188 203.179688 145.179688 203.035156 144.46875 200.660156 C 144.035156 199.210938 144.449219 195.175781 145.382812 191.808594 C 145.660156 190.808594 146.394531 188.066406 147.015625 185.71875 C 147.636719 183.371094 148.574219 179.964844 149.09375 178.15625 C 150.652344 172.753906 151.292969 169.21875 150.808594 168.734375 C 150.210938 168.136719 145.796875 168.003906 142.910156 168.496094 C 140.09375 168.976562 139.148438 169.699219 138.585938 171.796875 C 138.398438 172.484375 138.136719 173.117188 138 173.203125 C 137.859375 173.285156 137.417969 172.738281 137.019531 171.984375 C 135.988281 170.050781 134.792969 169.460938 131.886719 169.460938 C 122.058594 169.460938 113.109375 179.667969 109.179688 195.359375 C 108.0625 199.816406 107.984375 205.679688 109.003906 208.621094 C 110.671875 213.441406 114.40625 216.449219 118.683594 216.414062 C 122.429688 216.382812 128.1875 212.769531 131.613281 208.296875 C 132.066406 207.710938 132.527344 207.230469 132.640625 207.230469 C 132.753906 207.230469 133.113281 207.859375 133.433594 208.625 C 134.4375 211.011719 136.1875 212.546875 138.804688 213.335938 C 140.617188 213.882812 143.324219 213.402344 146.230469 212.019531 C 148.601562 210.894531 152.144531 207.375 154.511719 203.796875 C 156.082031 201.421875 159.941406 194.175781 159.941406 193.601562 C 159.941406 193.472656 160.152344 192.90625 160.40625 192.335938 C 161.417969 190.078125 162.59375 186.761719 164.421875 181.003906 L 166.339844 174.980469 L 168.535156 175.101562 C 172.890625 175.351562 173.019531 176.476562 169.671875 185.167969 C 167.136719 191.746094 165.9375 196.128906 165.65625 199.839844 C 165.488281 202.0625 165.566406 202.757812 166.171875 204.359375 C 167.117188 206.851562 168.097656 207.960938 170.199219 208.910156 C 171.644531 209.5625 172.445312 209.691406 175.082031 209.679688 C 177.953125 209.667969 178.421875 209.574219 180.378906 208.609375 C 183.101562 207.269531 186.71875 203.933594 188.730469 200.914062 L 190.28125 198.578125 L 190.757812 200.027344 C 191.710938 202.933594 194.195312 205.582031 196.597656 206.253906 C 203.117188 208.078125 211.589844 201.347656 217.414062 189.71875 C 217.769531 189.003906 218.027344 188.84375 218.546875 189.011719 C 220.082031 189.503906 222.890625 189.519531 224.414062 189.050781 C 225.582031 188.6875 226.023438 188.660156 226.101562 188.945312 C 226.160156 189.15625 226.382812 190.363281 226.597656 191.625 C 227.328125 195.964844 229.9375 199.464844 233.777344 201.265625 C 235.460938 202.054688 236.011719 202.136719 239.417969 202.136719 C 243.441406 202.132812 245.519531 201.675781 248.777344 200.074219 C 252.515625 198.238281 256.507812 194.71875 259.386719 190.710938 C 260.007812 189.847656 260.582031 189.203125 260.664062 189.285156 C 260.742188 189.363281 261.019531 190.335938 261.277344 191.441406 C 261.917969 194.1875 262.785156 195.773438 264.273438 196.910156 C 265.371094 197.75 265.796875 197.867188 267.660156 197.855469 C 270.710938 197.832031 273.753906 196.128906 276.707031 192.785156 C 279.601562 189.507812 279.378906 189.453125 278.628906 193.238281 C 278.03125 196.246094 277.414062 197.097656 274.28125 199.234375 C 268.359375 203.273438 264.144531 208.414062 262.363281 213.765625 C 261.171875 217.34375 261.558594 221.476562 263.257812 223.351562 C 264.804688 225.0625 269.5625 224.835938 273.003906 222.886719 C 276.675781 220.804688 280.324219 217.074219 282.207031 213.46875 C 283.15625 211.660156 285.722656 205.597656 285.722656 205.175781 C 285.722656 204.964844 286.246094 203.148438 286.886719 201.140625 L 288.046875 197.488281 L 290.695312 196.394531 C 295.578125 194.378906 302.484375 189.714844 306.238281 185.902344 C 307.316406 184.808594 308.316406 183.910156 308.457031 183.910156 C 308.597656 183.910156 308.714844 184.203125 308.714844 184.558594 C 308.714844 184.914062 309.058594 185.988281 309.480469 186.941406 C 310.160156 188.476562 310.988281 189.414062 313.191406 191.136719 C 315.492188 192.9375 320.390625 193.976562 324.777344 193.59375 C 334.933594 192.703125 343.117188 186.996094 344.820312 179.605469 C 345.871094 175.050781 344.21875 170.191406 339.703125 164.535156 C 336.601562 160.648438 335.738281 158.960938 335.253906 155.835938 C 334.949219 153.890625 334.960938 152.832031 335.296875 150.824219 C 336.128906 145.902344 336.136719 146.191406 335.167969 145.820312 C 333.632812 145.238281 331.914062 145.175781 330.269531 145.640625 M 307.234375 149.585938 C 305.355469 150.261719 304.203125 151.675781 303.96875 153.59375 C 303.460938 157.765625 302.875 159.253906 300.335938 162.847656 C 296.992188 167.582031 299.917969 168.960938 305.59375 165.320312 C 309.285156 162.953125 312.949219 157.8125 313.484375 154.253906 C 313.734375 152.570312 313.023438 150.660156 311.867188 149.929688 C 310.746094 149.21875 308.679688 149.066406 307.234375 149.585938 M 323.171875 165.316406 C 321.902344 167.933594 320.863281 170.3125 320.863281 170.609375 C 320.863281 170.90625 321.320312 171.53125 321.878906 172 C 323.871094 173.675781 323.824219 175.3125 321.742188 176.527344 C 319.085938 178.078125 318.425781 181.109375 320.058594 184.273438 C 320.78125 185.664062 322.929688 186.660156 324.695312 186.417969 C 326.824219 186.128906 329.28125 184.363281 330.324219 182.378906 C 331.371094 180.390625 331 176.359375 329.351562 171.761719 C 326.894531 164.894531 326.121094 162.5 326.121094 161.757812 C 326.121094 159.90625 325.34375 160.839844 323.171875 165.316406 M 247.792969 162.75 C 244.75 164.332031 241.910156 168.816406 240.117188 174.878906 C 239.742188 176.144531 239.394531 177.769531 239.34375 178.492188 C 239.253906 179.804688 239.253906 179.808594 240.394531 179.714844 C 245.148438 179.324219 251.761719 170.027344 251.148438 164.589844 C 250.894531 162.359375 249.753906 161.734375 247.792969 162.75 M 130.027344 179.261719 C 127.976562 180.5625 126.390625 182.527344 124.574219 186.015625 C 122.628906 189.746094 121.804688 192.046875 120.863281 196.378906 C 119.617188 202.105469 120.339844 205.300781 122.925781 205.523438 C 124.503906 205.660156 125.707031 204.980469 127.890625 202.726562 C 131.167969 199.34375 134.457031 190.621094 134.882812 184.191406 C 135.09375 180.960938 134.914062 179.902344 133.988281 178.976562 C 133.082031 178.074219 131.75 178.167969 130.027344 179.261719 M 52.058594 198.855469 C 43.796875 200.613281 39.839844 202.910156 36.441406 207.910156 C 34.679688 210.507812 34.160156 212.09375 34.160156 214.882812 C 34.160156 219.042969 36.0625 221.339844 39.742188 221.609375 C 41.335938 221.726562 41.839844 221.59375 43.996094 220.480469 C 47.132812 218.863281 49.113281 216.484375 52.027344 210.839844 C 54.753906 205.5625 56.984375 198.4375 56 198.175781 C 55.816406 198.125 54.042969 198.433594 52.058594 198.855469 M 336.429688 200.328125 C 335.105469 200.859375 334.421875 202.183594 334.023438 205.007812 C 333.070312 211.714844 330.953125 222.792969 329.71875 227.515625 C 328.167969 233.460938 325.191406 242.5 323.75 245.636719 C 323.207031 246.820312 322.488281 248.480469 322.15625 249.328125 C 320.578125 253.320312 315.039062 263.351562 311.050781 269.441406 C 301.167969 284.539062 285.851562 300.238281 270.945312 310.554688 C 255.210938 321.441406 234.636719 330.152344 216.757812 333.496094 C 214.320312 333.949219 211.585938 334.480469 210.683594 334.667969 C 204.074219 336.058594 188.859375 336.871094 179.121094 336.355469 C 172.167969 335.984375 164.945312 335.253906 162.570312 334.679688 C 161.9375 334.527344 160.3125 334.21875 158.957031 333.992188 C 144.324219 331.554688 128.121094 325.675781 113.308594 317.4375 C 108.363281 314.6875 98.339844 307.949219 93.929688 304.410156 C 77.140625 290.9375 63.875 274.832031 55.007812 257.148438 C 52.648438 252.441406 50.125 246.824219 49.464844 244.800781 C 48.644531 242.289062 48.273438 241.90625 46.910156 242.164062 C 46.277344 242.28125 45.4375 242.722656 45.042969 243.140625 L 44.328125 243.902344 L 45.023438 246.15625 C 45.40625 247.398438 46.515625 250.210938 47.492188 252.414062 C 52.839844 264.5 60.253906 276.277344 69.257812 287.003906 C 76.121094 295.171875 85.976562 304.492188 94.242188 310.628906 C 97.382812 312.960938 105.15625 318.148438 108.308594 320.015625 C 111.28125 321.78125 122.621094 327.507812 125.128906 328.511719 C 126.304688 328.984375 128.332031 329.808594 129.632812 330.347656 C 132.8125 331.667969 141.128906 334.492188 144.179688 335.285156 C 146.039062 335.773438 147.902344 336.269531 149.761719 336.769531 C 152.4375 337.492188 155.667969 338.113281 165.851562 339.863281 C 171.074219 340.761719 176.125 341.039062 186.871094 341.023438 C 199.9375 341 203.234375 340.714844 215.445312 338.542969 C 225.476562 336.757812 239.191406 332.507812 248.199219 328.394531 C 248.964844 328.042969 249.671875 327.757812 249.765625 327.757812 C 250.261719 327.757812 262.1875 321.589844 265.109375 319.824219 C 271.621094 315.890625 279.707031 310.265625 282.949219 307.417969 C 283.683594 306.773438 284.664062 305.949219 285.128906 305.589844 C 288.59375 302.894531 296.609375 295.105469 301.007812 290.152344 C 307.9375 282.359375 311.488281 277.5625 318.171875 267 C 322.625 259.957031 327.398438 249.871094 330.5625 240.828125 C 334.027344 230.910156 335.742188 223.960938 338.109375 210.183594 C 338.714844 206.679688 339.054688 201.273438 338.703125 200.789062 C 338.300781 200.238281 337.207031 200.015625 336.429688 200.328125 M 273.332031 206.429688 C 270.382812 209.660156 268.242188 213.390625 268.382812 215.0625 C 268.46875 216.105469 268.601562 216.273438 269.417969 216.367188 C 270.171875 216.453125 270.636719 216.179688 271.792969 214.972656 C 273.644531 213.042969 274.6875 210.953125 275.578125 207.40625 C 276.566406 203.460938 276.1875 203.296875 273.332031 206.429688 M 212.679688 212.816406 C 209.261719 214.152344 207.339844 217.273438 205.597656 224.339844 C 205.046875 226.578125 204.304688 229.519531 203.949219 230.875 C 203.59375 232.230469 203.066406 234.667969 202.777344 236.292969 C 201.109375 245.617188 200.265625 247.945312 197.519531 250.820312 C 196.066406 252.34375 195.429688 252.523438 194.570312 251.664062 C 194.109375 251.203125 194.042969 250.699219 194.199219 248.789062 C 194.398438 246.328125 194.960938 244.0625 197.699219 234.699219 C 198.988281 230.289062 199.320312 228.742188 199.039062 228.460938 C 198.246094 227.667969 191.246094 228.433594 190.253906 229.417969 C 190.039062 229.632812 189.761719 230.199219 189.644531 230.671875 C 189.363281 231.785156 189.011719 231.757812 188.3125 230.574219 C 186.546875 227.582031 180.175781 229.03125 175.777344 233.429688 C 172.671875 236.539062 169.296875 243.164062 168.453125 247.816406 C 168.152344 249.5 167.875 249.992188 166.402344 251.503906 C 164.429688 253.53125 161.058594 256.097656 159.003906 257.132812 C 156.898438 258.195312 153.28125 258.867188 151.097656 258.601562 C 146.519531 258.042969 144.472656 255.425781 144.457031 250.109375 C 144.449219 247.449219 145.203125 242.558594 145.832031 241.21875 C 146 240.859375 146.511719 239.359375 146.96875 237.886719 C 147.425781 236.414062 148.316406 234.074219 148.949219 232.6875 C 149.578125 231.300781 150 230.007812 149.878906 229.8125 C 149.746094 229.601562 149.8125 229.554688 150.042969 229.695312 C 150.261719 229.832031 150.511719 229.679688 150.636719 229.335938 C 150.753906 229.007812 151.65625 227.726562 152.648438 226.488281 C 155.503906 222.910156 158.109375 222.082031 160.140625 224.109375 C 161.167969 225.136719 161.253906 225.386719 161.253906 227.242188 C 161.253906 229.71875 160.398438 231.539062 157.941406 234.277344 C 156.5625 235.8125 156.28125 236.308594 156.550781 236.738281 C 157.183594 237.757812 158.382812 238.136719 160.496094 237.992188 C 166.464844 237.578125 170.753906 231.984375 170.773438 224.589844 C 170.789062 218.507812 167.097656 215.246094 160.269531 215.300781 C 150.351562 215.382812 140.941406 223.132812 135.933594 235.339844 C 133.988281 240.078125 133.332031 242.933594 133.113281 247.625 C 132.949219 251.136719 133.023438 252.125 133.613281 254.460938 C 134.925781 259.648438 137.90625 263.3125 142.230469 265.054688 C 144.699219 266.050781 149.734375 266.28125 152.878906 265.542969 C 157.253906 264.515625 161.46875 262.117188 165.300781 258.476562 C 166.640625 257.203125 167.828125 256.164062 167.941406 256.164062 C 168.050781 256.164062 168.375 256.714844 168.65625 257.390625 C 169.300781 258.9375 170.242188 259.945312 171.992188 260.976562 C 173.613281 261.929688 176.863281 262.09375 178.730469 261.316406 C 180.613281 260.527344 183.222656 258.46875 184.269531 256.945312 C 184.816406 256.152344 185.363281 255.507812 185.492188 255.507812 C 185.621094 255.507812 186.023438 256.128906 186.390625 256.890625 C 188.121094 260.484375 193.152344 260.527344 197.292969 256.980469 C 198.757812 255.726562 199.5 255.507812 199.214844 256.410156 C 198.730469 257.929688 198.398438 265.140625 198.699219 267.519531 C 199.238281 271.78125 200.457031 273.085938 203.59375 272.753906 C 207.308594 272.359375 210.207031 270.296875 211.847656 266.886719 C 213.214844 264.039062 213.59375 261.105469 213.375 255.132812 L 213.1875 250 L 214.445312 249.800781 C 215.136719 249.6875 216.46875 249.082031 217.410156 248.449219 C 219.167969 247.265625 219.714844 247.21875 219.714844 248.257812 C 219.714844 249.199219 221.324219 251.925781 222.785156 253.453125 C 224.695312 255.453125 226.175781 255.921875 230.105469 255.78125 C 232.777344 255.6875 233.671875 255.511719 235.234375 254.78125 C 239.496094 252.789062 242.9375 249.253906 245.820312 243.910156 C 247.152344 241.441406 247.355469 240.824219 247.207031 239.710938 C 247.007812 238.222656 246.183594 236.785156 245.53125 236.785156 C 245.289062 236.785156 244.621094 237.910156 244.042969 239.285156 C 242.679688 242.539062 241.628906 244.164062 239.703125 246.023438 C 237.390625 248.253906 235.503906 249.066406 232.574219 249.085938 C 230.335938 249.101562 230.113281 249.039062 229.375 248.179688 C 228.765625 247.476562 228.582031 246.878906 228.582031 245.636719 L 228.582031 244.011719 L 230.304688 244.007812 C 232.875 244.003906 235.148438 242.800781 237.914062 239.976562 C 240.261719 237.582031 241.867188 235.015625 242.882812 232.03125 C 243.914062 228.992188 242.84375 224.980469 240.640625 223.644531 C 240.066406 223.292969 238.792969 222.828125 237.8125 222.609375 C 236.304688 222.269531 235.714844 222.292969 233.917969 222.765625 C 231.074219 223.511719 230.046875 224.035156 227.832031 225.871094 C 224.496094 228.632812 221.378906 233.546875 220.382812 237.609375 C 219.625 240.695312 219.457031 240.929688 217.238281 242.023438 C 215.035156 243.105469 212.496094 243.59375 210.992188 243.214844 C 210.121094 242.996094 210.105469 242.949219 210.28125 241.023438 C 210.378906 239.941406 210.695312 238.730469 210.988281 238.332031 C 215.191406 232.597656 221.027344 220.09375 221.027344 216.824219 C 221.023438 212.949219 217.128906 211.078125 212.679688 212.816406 M 234.101562 228.355469 C 231.714844 229.945312 228.910156 235.582031 228.910156 238.78125 L 228.910156 240.050781 L 230.488281 239.160156 C 232.832031 237.832031 233.289062 237.4375 234.558594 235.636719 C 236.089844 233.464844 236.859375 231.320312 236.730469 229.574219 C 236.59375 227.714844 235.691406 227.292969 234.101562 228.355469 M 275.707031 230.199219 C 274.691406 230.617188 274.007812 231.53125 272.480469 234.519531 C 265.445312 248.296875 253.707031 261.804688 241.511719 270.164062 C 233.214844 275.84375 223.449219 280.59375 214.953125 283.074219 C 212.964844 283.65625 210.96875 284.261719 210.519531 284.421875 C 208.839844 285.019531 202.632812 286.097656 197.21875 286.730469 C 187.433594 287.878906 175.097656 287.476562 166.183594 285.722656 C 161.320312 284.765625 154.347656 282.699219 148.777344 280.5625 C 129.871094 273.316406 113.265625 259.800781 102.351562 242.769531 C 101.003906 240.671875 99.6875 239.414062 98.835938 239.414062 C 98.015625 239.414062 96.558594 240.789062 96.558594 241.5625 C 96.558594 242.277344 99.875 247.796875 101.609375 249.972656 C 102.125 250.621094 102.628906 251.273438 103.125 251.933594 C 110.371094 261.539062 121.8125 271.679688 132.332031 277.824219 C 144.230469 284.773438 160.082031 290.0625 172.585938 291.257812 C 174.574219 291.449219 177.898438 291.773438 179.976562 291.984375 C 188.378906 292.832031 204.648438 291.066406 213.636719 288.335938 C 221.105469 286.070312 224.550781 284.757812 230.457031 281.941406 C 243.929688 275.507812 255.914062 265.871094 265.78125 253.527344 C 270.542969 247.574219 278.5 234.199219 278.5 232.152344 C 278.5 231.507812 277.128906 229.871094 276.625 229.910156 C 276.480469 229.921875 276.070312 230.050781 275.707031 230.199219 M 183.371094 236.148438 C 179.957031 238.335938 176.675781 246.117188 177.085938 251.058594 C 177.277344 253.351562 177.910156 254.109375 179.472656 253.925781 C 181.949219 253.636719 185.019531 248.726562 186.40625 242.828125 C 186.972656 240.417969 187.015625 236.402344 186.476562 235.867188 C 185.886719 235.277344 184.539062 235.398438 183.371094 236.148438 M 290.921875 247.855469 C 290.640625 248.179688 289.953125 249.410156 289.394531 250.59375 L 288.382812 252.742188 L 285.691406 253.132812 C 281.089844 253.804688 280.605469 255.121094 283.789062 258.332031 L 285.792969 260.355469 L 285.382812 263.351562 C 285.003906 266.117188 285.019531 266.402344 285.5625 267.003906 C 286.394531 267.921875 287.035156 267.832031 289.925781 266.378906 L 292.46875 265.101562 L 294.761719 266.375 C 299.058594 268.761719 300.226562 267.675781 299.144531 262.292969 L 298.769531 260.429688 L 300.5 258.707031 C 303.066406 256.148438 303.28125 255.753906 302.695312 254.625 C 302.257812 253.789062 301.933594 253.652344 299.304688 253.207031 L 296.398438 252.710938 L 295.078125 250.085938 C 293.835938 247.609375 293.691406 247.453125 292.597656 247.363281 C 291.800781 247.292969 291.277344 247.449219 290.921875 247.855469 M 207.875 251.445312 C 207.351562 252.816406 206.898438 255.085938 206.433594 258.625 C 205.976562 262.125 206.035156 263.296875 206.699219 263.972656 C 207.375 264.660156 208.25 263.359375 208.925781 260.675781 C 209.601562 257.976562 209.699219 254.679688 209.175781 252.238281 C 208.78125 250.394531 208.367188 250.144531 207.875 251.445312 M 93.671875 266.566406 C 93.441406 266.660156 92.664062 267.902344 91.945312 269.332031 C 91.226562 270.757812 90.558594 271.925781 90.460938 271.925781 C 90.359375 271.925781 89.21875 272.085938 87.917969 272.285156 C 83.355469 272.972656 82.921875 274.191406 86.101562 277.398438 L 88.121094 279.4375 L 87.695312 282.417969 C 87.296875 285.179688 87.308594 285.445312 87.859375 286.050781 C 88.699219 286.984375 89.648438 286.871094 92.394531 285.507812 L 94.8125 284.3125 L 96.988281 285.507812 C 99.21875 286.734375 100.722656 287.007812 101.417969 286.3125 C 101.910156 285.820312 101.925781 283.648438 101.449219 281.429688 L 101.085938 279.734375 L 103.046875 277.71875 C 105.28125 275.421875 105.554688 274.871094 105.039062 273.734375 C 104.605469 272.785156 104.402344 272.707031 101.175781 272.253906 C 99.832031 272.066406 98.703125 271.878906 98.667969 271.835938 C 98.636719 271.796875 98.128906 270.800781 97.546875 269.628906 C 95.972656 266.460938 95.285156 265.917969 93.671875 266.566406 M 253.652344 285.761719 C 253.5 285.984375 252.859375 287.207031 252.226562 288.480469 L 251.078125 290.792969 L 248.128906 291.296875 C 245.566406 291.730469 245.128906 291.902344 244.769531 292.617188 C 244.539062 293.070312 244.351562 293.636719 244.347656 293.878906 C 244.347656 294.125 245.304688 295.320312 246.484375 296.539062 L 248.621094 298.753906 L 248.089844 301.3125 C 247.164062 305.789062 248.347656 306.65625 252.5625 304.601562 L 255.113281 303.355469 L 257.429688 304.554688 C 260.023438 305.898438 260.613281 305.988281 261.714844 305.214844 C 262.394531 304.738281 262.457031 304.507812 262.269531 303.164062 C 261.558594 298.164062 261.441406 298.742188 263.679688 296.414062 C 265.769531 294.234375 266.023438 293.566406 265.203125 292.398438 C 264.824219 291.851562 264.101562 291.609375 261.90625 291.285156 L 259.09375 290.863281 L 257.714844 288.210938 C 256.402344 285.6875 256.273438 285.550781 255.128906 285.457031 C 254.4375 285.398438 253.8125 285.527344 253.652344 285.761719 M 141.445312 297.253906 C 141.117188 297.445312 140.328125 298.679688 139.695312 300 C 138.5 302.480469 138.070312 302.792969 135.84375 302.800781 C 134.429688 302.804688 132.664062 303.507812 132.164062 304.269531 C 131.5 305.285156 131.839844 305.96875 134.214844 308.40625 L 136 310.238281 L 135.65625 312.347656 C 135.1875 315.234375 135.222656 316.128906 135.828125 316.730469 C 136.628906 317.535156 137.796875 317.351562 140.261719 316.039062 L 142.535156 314.828125 L 144.808594 316.039062 C 147.304688 317.367188 148.441406 317.535156 149.28125 316.695312 C 149.828125 316.148438 149.8125 314.480469 149.230469 311.15625 C 149.078125 310.273438 149.292969 309.910156 151.050781 308.105469 C 154.226562 304.835938 153.761719 303.464844 149.257812 302.8125 C 148 302.632812 146.875 302.480469 146.761719 302.476562 C 146.648438 302.472656 146.058594 301.476562 145.453125 300.257812 C 143.835938 297 142.980469 296.359375 141.445312 297.253906 M 195.980469 304.140625 C 195.660156 304.328125 194.867188 305.542969 194.214844 306.839844 C 193.5625 308.140625 192.863281 309.308594 192.660156 309.4375 C 192.457031 309.566406 191.265625 309.773438 190.011719 309.894531 C 188.257812 310.066406 187.554688 310.296875 186.972656 310.878906 C 185.777344 312.074219 186.015625 312.855469 188.296875 315.167969 L 190.375 317.28125 L 190.113281 318.824219 C 189.382812 323.101562 189.382812 323.042969 190.117188 323.777344 C 191.085938 324.746094 191.703125 324.660156 194.46875 323.179688 L 196.882812 321.886719 L 199.304688 323.179688 C 202.082031 324.660156 202.691406 324.746094 203.660156 323.777344 C 204.394531 323.042969 204.394531 323.117188 203.65625 318.777344 L 203.386719 317.183594 L 205.472656 315.128906 C 207.675781 312.960938 207.949219 312.210938 206.988281 311.035156 C 206.558594 310.511719 205.734375 310.226562 203.703125 309.90625 C 202.214844 309.671875 200.941406 309.417969 200.871094 309.339844 C 200.800781 309.265625 200.207031 308.136719 199.554688 306.832031 C 198.144531 304.007812 197.296875 303.375 195.980469 304.140625 "/></g></svg>