<svg xmlns="http://www.w3.org/2000/svg" xmlns:xlink="http://www.w3.org/1999/xlink" width="7968" zoomAndPan="magnify" viewBox="0 0 5976 1043.999947" height="1392" preserveAspectRatio="xMidYMid meet" version="1.2"><defs/><g id="0ecbd1a110"><rect x="0" width="5976" y="0" height="1043.999947" style="fill:#ffffff;fill-opacity:1;stroke:none;"/><rect x="0" width="5976" y="0" height="1043.999947" style="fill:#eb3e04;fill-opacity:1;stroke:none;"/><g style="fill:#ffffff;fill-opacity:1;"><g transform="translate(1265.431211, 240.476481)"><path style="stroke:none" d="M 122.011719 -151.082031 C 92.460938 -151.082031 12.390625 -142.265625 12.390625 -110.808594 C 12.390625 -103.183594 19.777344 -93.175781 27.167969 -93.175781 C 27.167969 -108.664062 58.382812 -122.726562 93.175781 -129.636719 C 73.160156 -106.996094 33.363281 -28.597656 33.363281 -5.480469 C 33.363281 7.148438 44.5625 13.34375 50.28125 13.34375 C 52.425781 13.34375 53.617188 12.628906 53.855469 11.199219 C 53.617188 -9.769531 89.601562 -90.792969 117.007812 -122.726562 C 117.722656 -123.203125 117.960938 -123.917969 117.960938 -124.632812 C 117.960938 -127.015625 115.816406 -130.351562 112.480469 -132.734375 C 120.820312 -133.6875 129.160156 -134.164062 137.023438 -134.164062 C 154.179688 -134.164062 159.1875 -133.449219 163 -128.683594 C 166.097656 -128.683594 168.242188 -130.828125 168.242188 -133.449219 C 168.242188 -140.121094 157.042969 -151.082031 122.011719 -151.082031 Z M 122.011719 -151.082031 "/></g></g><g style="fill:#ffffff;fill-opacity:1;"><g transform="translate(1356.460182, 240.476481)"><path style="stroke:none" d="M 20.96875 7.148438 C 23.117188 7.148438 24.785156 6.671875 24.785156 5.242188 C 39.558594 -33.601562 80.070312 -82.929688 89.839844 -82.929688 C 90.554688 -82.929688 91.03125 -82.453125 91.03125 -81.738281 C 91.03125 -75.066406 64.578125 -43.847656 64.578125 -23.117188 C 64.578125 -9.53125 74.828125 1.90625 84.835938 1.90625 C 98.417969 1.90625 122.25 -19.0625 146.554688 -56.953125 C 146.554688 -60.289062 142.265625 -63.148438 139.882812 -63.148438 C 121.058594 -35.746094 101.277344 -18.109375 93.414062 -18.109375 C 91.03125 -18.109375 89.839844 -19.539062 89.839844 -22.640625 C 89.839844 -35.03125 110.570312 -70.300781 118.199219 -80.546875 C 119.390625 -81.261719 119.867188 -82.691406 119.867188 -84.359375 C 119.867188 -91.03125 111.765625 -101.277344 98.179688 -101.277344 C 83.882812 -101.277344 53.378906 -66.246094 35.507812 -36.699219 L 34.078125 -37.414062 C 48.851562 -77.449219 83.167969 -136.308594 89.839844 -136.308594 C 90.792969 -136.785156 91.269531 -137.976562 91.269531 -138.929688 C 91.269531 -143.457031 82.929688 -150.367188 76.019531 -150.367188 C 63.625 -150.367188 4.050781 -37.175781 4.050781 -8.816406 C 4.050781 1.429688 15.011719 7.148438 20.96875 7.148438 Z M 20.96875 7.148438 "/></g></g><g style="fill:#ffffff;fill-opacity:1;"><g transform="translate(1471.318697, 240.476481)"><path style="stroke:none" d="M 111.527344 -63.148438 C 88.648438 -29.3125 58.621094 -10.007812 42.179688 -10.007812 C 34.316406 -10.007812 30.980469 -15.011719 30.980469 -21.445312 L 30.980469 -22.160156 C 59.574219 -30.503906 93.652344 -65.054688 93.652344 -84.835938 C 93.652344 -95.558594 83.644531 -105.328125 71.730469 -105.328125 C 43.609375 -105.328125 7.148438 -50.996094 7.148438 -22.160156 C 7.148438 -4.765625 20.730469 7.863281 37.890625 7.863281 C 59.574219 7.863281 86.265625 -9.53125 118.199219 -56.953125 C 118.199219 -60.289062 113.910156 -63.148438 111.527344 -63.148438 Z M 76.257812 -89.125 C 79.117188 -89.125 80.308594 -87.695312 80.308594 -85.074219 C 80.308594 -73.398438 53.140625 -41.464844 33.363281 -34.316406 C 40.511719 -57.667969 63.386719 -89.125 76.257812 -89.125 Z M 76.257812 -89.125 "/></g></g><g style="fill:#ffffff;fill-opacity:1;"><g transform="translate(1265.431211, 825.426506)"><path style="stroke:none" d="M 525.050781 -442.925781 C 520.839844 -442.925781 516.628906 -441.519531 513.117188 -439.414062 C 481.53125 -417.65625 415.546875 -300.429688 365.710938 -192.332031 C 328.507812 -188.820312 283.582031 -185.3125 237.957031 -181.101562 C 278.671875 -259.015625 317.277344 -332.71875 317.277344 -357.988281 C 317.277344 -379.75 289.199219 -439.414062 214.089844 -439.414062 C 127.050781 -439.414062 26.671875 -358.691406 26.671875 -290.601562 C 26.671875 -267.4375 42.117188 -230.238281 71.597656 -230.238281 C 71.597656 -296.21875 197.246094 -401.507812 247.082031 -401.507812 C 259.015625 -401.507812 264.632812 -395.894531 264.632812 -388.171875 C 264.632812 -367.113281 208.476562 -268.84375 158.636719 -176.1875 C 125.648438 -174.082031 94.761719 -172.675781 70.195312 -172.675781 C 68.089844 -171.273438 67.386719 -167.0625 67.386719 -162.148438 C 67.386719 -146.707031 77.214844 -120.734375 110.203125 -120.734375 C 115.117188 -120.734375 122.136719 -121.4375 130.5625 -122.136719 C 104.589844 -70.894531 85.636719 -26.671875 85.636719 -6.316406 C 85.636719 14.742188 120.03125 38.605469 138.984375 38.605469 C 144.601562 38.605469 148.8125 36.5 150.917969 32.289062 C 149.511719 0.703125 178.996094 -63.875 212.6875 -131.964844 C 254.804688 -136.878906 302.535156 -143.898438 346.757812 -149.511719 C 322.191406 -90.550781 304.640625 -38.605469 304.640625 -13.335938 C 304.640625 18.25 330.613281 44.222656 360.09375 44.222656 C 390.980469 44.222656 423.972656 14.039062 423.972656 -5.617188 C 423.972656 -8.421875 423.269531 -11.933594 421.164062 -14.039062 C 411.335938 -6.316406 394.492188 0 386.769531 0 C 379.75 0 376.238281 -4.914062 376.238281 -13.335938 C 376.238281 -33.691406 397.296875 -91.953125 426.78125 -158.636719 C 443.625 -160.042969 457.664062 -160.746094 468.195312 -160.746094 C 472.40625 -159.339844 474.511719 -163.550781 474.511719 -169.871094 C 474.511719 -181.101562 466.789062 -199.351562 450.644531 -199.351562 L 445.730469 -199.351562 C 482.933594 -277.265625 529.261719 -359.394531 565.765625 -403.617188 C 567.871094 -405.019531 568.570312 -407.125 568.570312 -409.933594 C 568.570312 -421.867188 544.003906 -442.925781 525.050781 -442.925781 Z M 525.050781 -442.925781 "/></g></g><g style="fill:#ffffff;fill-opacity:1;"><g transform="translate(1728.711823, 825.426506)"><path style="stroke:none" d="M 87.039062 25.269531 C 131.964844 25.269531 184.609375 -103.886719 215.496094 -142.492188 L 221.109375 -141.089844 C 213.390625 -120.734375 204.265625 -94.058594 204.265625 -63.175781 C 204.265625 -18.953125 232.34375 0 249.890625 0 C 279.371094 0 335.527344 -53.347656 404.316406 -167.765625 C 404.316406 -177.589844 391.683594 -186.015625 384.664062 -186.015625 C 326.402344 -100.378906 295.515625 -68.089844 273.757812 -68.089844 C 266.738281 -68.089844 263.929688 -73 263.929688 -82.128906 C 263.929688 -110.203125 292.007812 -168.464844 299.726562 -169.871094 C 301.132812 -171.273438 301.835938 -173.378906 301.835938 -176.1875 C 301.835938 -190.925781 275.160156 -211.285156 249.890625 -211.285156 C 215.496094 -211.285156 120.734375 -39.308594 98.273438 -39.308594 C 94.058594 -39.308594 90.550781 -42.117188 90.550781 -53.347656 C 90.550781 -106.695312 167.765625 -264.632812 243.574219 -264.632812 C 265.332031 -264.632812 280.777344 -256.207031 280.074219 -224.621094 C 298.324219 -227.429688 306.046875 -239.363281 306.046875 -253.398438 C 306.046875 -279.371094 261.121094 -313.066406 223.21875 -313.066406 C 138.28125 -313.066406 19.65625 -150.214844 19.65625 -54.75 C 19.65625 -14.039062 52.644531 25.269531 87.039062 25.269531 Z M 87.039062 25.269531 "/></g></g><g style="fill:#ffffff;fill-opacity:1;"><g transform="translate(2039.671367, 825.426506)"><path style="stroke:none" d="M 325.699219 -186.015625 C 299.027344 -145.300781 214.792969 -33.691406 178.292969 -33.691406 C 171.976562 -33.691406 169.167969 -37.203125 169.167969 -42.816406 C 169.167969 -73 242.167969 -172.675781 242.167969 -214.792969 C 242.167969 -256.207031 171.976562 -260.417969 171.976562 -276.5625 C 171.976562 -283.582031 184.609375 -298.324219 202.160156 -314.46875 C 209.179688 -325.699219 174.082031 -350.96875 158.636719 -350.96875 C 138.28125 -350.96875 112.308594 -316.574219 112.308594 -290.601562 C 112.308594 -282.179688 115.117188 -275.863281 119.328125 -270.246094 C 108.800781 -244.976562 91.953125 -214.792969 73.703125 -186.015625 C 73.703125 -176.890625 84.933594 -167.765625 93.359375 -167.765625 C 113.714844 -200.753906 130.5625 -228.832031 144.601562 -252.699219 C 159.339844 -244.976562 173.378906 -237.253906 173.378906 -223.21875 C 173.378906 -188.820312 95.464844 -110.203125 95.464844 -47.730469 C 95.464844 -8.421875 125.648438 22.460938 156.53125 22.460938 C 204.265625 22.460938 269.546875 -53.347656 345.355469 -167.765625 C 345.355469 -177.589844 332.71875 -186.015625 325.699219 -186.015625 Z M 325.699219 -186.015625 "/></g></g><g style="fill:#ffffff;fill-opacity:1;"><g transform="translate(2291.667909, 825.426506)"><path style="stroke:none" d="M 77.914062 21.761719 C 157.9375 21.761719 310.257812 -218.304688 310.257812 -274.457031 C 310.257812 -296.21875 287.796875 -316.574219 272.351562 -316.574219 C 269.546875 -316.574219 266.738281 -315.871094 264.632812 -313.765625 C 264.632812 -240.0625 136.878906 -35.800781 96.867188 -35.800781 C 91.953125 -35.800781 89.847656 -40.710938 89.847656 -49.136719 C 89.847656 -94.761719 153.023438 -237.253906 181.101562 -261.824219 C 185.3125 -262.527344 186.714844 -265.332031 186.714844 -269.546875 C 186.714844 -280.074219 170.570312 -299.726562 147.40625 -299.726562 C 99.675781 -299.726562 25.269531 -129.15625 25.269531 -58.964844 C 25.269531 -2.105469 63.875 21.761719 77.914062 21.761719 Z M 77.914062 21.761719 "/></g></g><g style="fill:#ffffff;fill-opacity:1;"><g transform="translate(2545.770255, 825.426506)"><path style="stroke:none" d="M 328.507812 -186.015625 C 261.121094 -86.339844 172.675781 -29.480469 124.242188 -29.480469 C 101.078125 -29.480469 91.253906 -44.222656 91.253906 -63.175781 L 91.253906 -65.28125 C 175.484375 -89.847656 275.863281 -191.628906 275.863281 -249.890625 C 275.863281 -281.476562 246.382812 -310.257812 211.285156 -310.257812 C 128.453125 -310.257812 21.058594 -150.214844 21.058594 -65.28125 C 21.058594 -14.039062 61.070312 23.164062 111.609375 23.164062 C 175.484375 23.164062 254.101562 -28.078125 348.164062 -167.765625 C 348.164062 -177.589844 335.527344 -186.015625 328.507812 -186.015625 Z M 224.621094 -262.527344 C 233.042969 -262.527344 236.554688 -258.3125 236.554688 -250.59375 C 236.554688 -216.199219 156.53125 -122.136719 98.273438 -101.078125 C 119.328125 -169.871094 186.714844 -262.527344 224.621094 -262.527344 Z M 224.621094 -262.527344 "/></g></g><g style="fill:#ffffff;fill-opacity:1;"><g transform="translate(2800.574652, 825.426506)"><path style="stroke:none" d="M 430.289062 -167.765625 C 430.289062 -177.589844 417.65625 -186.015625 410.636719 -186.015625 C 369.21875 -122.136719 319.382812 -72.300781 268.84375 -35.097656 C 300.429688 -120.734375 325.699219 -211.285156 358.691406 -261.121094 C 359.394531 -262.527344 360.09375 -263.929688 360.09375 -265.332031 C 360.09375 -278.671875 331.316406 -295.515625 309.554688 -295.515625 C 301.835938 -295.515625 294.816406 -293.410156 290.601562 -287.09375 C 251.996094 -228.128906 137.582031 -40.710938 98.273438 -40.710938 C 93.359375 -40.710938 91.953125 -44.925781 91.953125 -52.644531 C 91.953125 -94.761719 159.339844 -236.554688 192.332031 -264.632812 C 194.4375 -266.035156 195.140625 -268.140625 195.140625 -270.949219 C 195.140625 -283.582031 172.675781 -302.535156 152.320312 -302.535156 C 124.242188 -302.535156 23.164062 -131.261719 23.164062 -53.347656 C 23.164062 -16.144531 57.558594 11.933594 89.847656 11.933594 C 128.453125 11.933594 186.015625 -68.089844 236.554688 -148.8125 L 241.46875 -147.40625 C 226.726562 -93.359375 207.074219 -38.605469 186.015625 8.421875 C 91.253906 54.75 23.164062 79.320312 23.164062 119.328125 C 23.164062 143.195312 49.835938 170.570312 96.164062 170.570312 C 168.464844 170.570312 214.089844 100.378906 249.890625 14.039062 C 311.660156 -23.867188 378.34375 -81.425781 430.289062 -167.765625 Z M 87.039062 129.859375 C 77.914062 129.859375 68.089844 124.945312 68.089844 115.117188 C 68.089844 92.65625 112.308594 75.808594 172.675781 47.03125 C 146.003906 96.164062 113.714844 129.859375 87.039062 129.859375 Z M 87.039062 129.859375 "/></g></g><g style="fill:#ffffff;fill-opacity:1;"><g transform="translate(3095.389468, 825.426506)"><path style="stroke:none" d="M 137.582031 -305.34375 C 168.464844 -305.34375 244.976562 -387.472656 244.976562 -426.078125 C 244.976562 -442.222656 221.109375 -454.15625 207.773438 -454.15625 C 204.265625 -454.15625 201.457031 -453.453125 200.753906 -451.347656 C 190.925781 -409.230469 146.003906 -334.824219 127.050781 -311.660156 C 129.15625 -307.449219 132.667969 -305.34375 137.582031 -305.34375 Z M 137.582031 -305.34375 "/></g></g><g style="fill:#ffffff;fill-opacity:1;"><g transform="translate(3224.546496, 825.426506)"><path style="stroke:none" d="M 327.105469 -167.765625 C 327.105469 -177.589844 314.46875 -186.015625 307.449219 -186.015625 C 274.457031 -140.386719 240.0625 -118.628906 203.5625 -110.203125 L 203.5625 -119.328125 C 203.5625 -190.226562 208.476562 -269.546875 248.488281 -294.113281 C 233.746094 -321.488281 214.089844 -333.421875 194.4375 -333.421875 C 173.378906 -333.421875 153.726562 -320.785156 142.492188 -298.324219 C 134.773438 -283.582031 84.234375 -202.160156 73.703125 -186.015625 C 73.703125 -176.890625 84.933594 -167.765625 93.359375 -167.765625 C 99.675781 -178.292969 124.945312 -216.898438 146.003906 -248.488281 L 150.214844 -246.382812 C 145.300781 -220.410156 137.582031 -168.464844 134.773438 -107.398438 C 86.339844 -113.011719 54.050781 -131.261719 37.90625 -131.261719 C 16.847656 -131.261719 2.105469 -117.222656 2.105469 -97.570312 C 2.105469 -47.730469 83.53125 25.972656 139.6875 25.972656 C 176.1875 25.972656 204.265625 -4.210938 204.265625 -46.328125 L 204.265625 -77.214844 C 247.082031 -88.445312 289.902344 -116.523438 327.105469 -167.765625 Z M 110.90625 -28.078125 C 89.847656 -28.078125 50.539062 -56.15625 30.183594 -92.65625 C 55.453125 -86.339844 94.761719 -74.40625 134.070312 -71.597656 L 134.070312 -65.28125 C 134.070312 -40.011719 126.347656 -28.078125 110.90625 -28.078125 Z M 110.90625 -28.078125 "/></g></g><g style="fill:#ffffff;fill-opacity:1;"><g transform="translate(3458.292656, 825.426506)"><path style="stroke:none" d=""/></g></g><g style="fill:#ffffff;fill-opacity:1;"><g transform="translate(3586.74773, 825.426506)"><path style="stroke:none" d="M 166.359375 44.925781 C 266.738281 44.925781 374.132812 -58.964844 446.433594 -167.765625 C 446.433594 -177.589844 433.800781 -186.015625 426.78125 -186.015625 C 354.480469 -83.53125 259.015625 -11.933594 169.871094 -11.933594 C 120.734375 -11.933594 99.675781 -35.097656 99.675781 -77.214844 C 99.675781 -212.6875 263.929688 -407.125 347.460938 -407.125 C 365.710938 -407.125 376.941406 -396.597656 376.941406 -376.941406 C 376.941406 -334.824219 323.59375 -264.632812 286.390625 -243.574219 C 296.21875 -237.253906 307.449219 -234.449219 319.382812 -234.449219 C 372.730469 -234.449219 433.800781 -295.515625 433.800781 -355.183594 C 433.800781 -414.847656 373.433594 -449.242188 322.191406 -449.242188 C 195.839844 -449.242188 28.78125 -237.957031 28.78125 -96.164062 C 28.78125 -11.933594 91.953125 44.925781 166.359375 44.925781 Z M 166.359375 44.925781 "/></g></g><g style="fill:#ffffff;fill-opacity:1;"><g transform="translate(3939.823796, 825.426506)"><path style="stroke:none" d="M 87.039062 25.269531 C 131.964844 25.269531 184.609375 -103.886719 215.496094 -142.492188 L 221.109375 -141.089844 C 213.390625 -120.734375 204.265625 -94.058594 204.265625 -63.175781 C 204.265625 -18.953125 232.34375 0 249.890625 0 C 279.371094 0 335.527344 -53.347656 404.316406 -167.765625 C 404.316406 -177.589844 391.683594 -186.015625 384.664062 -186.015625 C 326.402344 -100.378906 295.515625 -68.089844 273.757812 -68.089844 C 266.738281 -68.089844 263.929688 -73 263.929688 -82.128906 C 263.929688 -110.203125 292.007812 -168.464844 299.726562 -169.871094 C 301.132812 -171.273438 301.835938 -173.378906 301.835938 -176.1875 C 301.835938 -190.925781 275.160156 -211.285156 249.890625 -211.285156 C 215.496094 -211.285156 120.734375 -39.308594 98.273438 -39.308594 C 94.058594 -39.308594 90.550781 -42.117188 90.550781 -53.347656 C 90.550781 -106.695312 167.765625 -264.632812 243.574219 -264.632812 C 265.332031 -264.632812 280.777344 -256.207031 280.074219 -224.621094 C 298.324219 -227.429688 306.046875 -239.363281 306.046875 -253.398438 C 306.046875 -279.371094 261.121094 -313.066406 223.21875 -313.066406 C 138.28125 -313.066406 19.65625 -150.214844 19.65625 -54.75 C 19.65625 -14.039062 52.644531 25.269531 87.039062 25.269531 Z M 87.039062 25.269531 "/></g></g><g style="fill:#ffffff;fill-opacity:1;"><g transform="translate(4250.783191, 825.426506)"><path style="stroke:none" d="M 225.324219 -412.039062 C 204.964844 -412.039062 144.601562 -327.105469 91.253906 -224.621094 C 74.40625 -223.917969 60.367188 -223.21875 53.347656 -223.21875 C 49.835938 -218.304688 49.136719 -213.390625 49.136719 -208.476562 C 49.136719 -195.839844 57.558594 -186.015625 71.597656 -185.3125 C 30.183594 -100.378906 -2.808594 -9.125 -2.808594 50.539062 C -2.808594 99.675781 28.78125 141.089844 65.980469 141.089844 C 129.15625 141.089844 179.695312 -18.953125 179.695312 -122.839844 C 179.695312 -148.8125 176.1875 -171.976562 169.871094 -189.523438 C 182.503906 -190.226562 195.839844 -190.226562 207.773438 -190.226562 C 223.21875 -190.226562 237.253906 -190.226562 246.382812 -188.820312 C 247.785156 -190.925781 249.890625 -195.140625 249.890625 -200.054688 C 249.890625 -213.390625 241.46875 -229.535156 214.089844 -229.535156 C 201.457031 -229.535156 182.503906 -228.832031 162.148438 -228.128906 C 196.542969 -292.710938 234.449219 -346.757812 268.140625 -370.625 C 270.949219 -372.730469 272.351562 -374.835938 272.351562 -378.34375 C 272.351562 -392.382812 248.488281 -412.039062 225.324219 -412.039062 Z M 148.109375 -151.617188 C 148.109375 -63.875 99.675781 91.953125 69.492188 91.953125 C 63.175781 91.953125 60.367188 85.636719 60.367188 73 C 60.367188 13.335938 95.464844 -93.359375 141.792969 -188.121094 C 142.492188 -188.121094 143.195312 -188.121094 143.898438 -188.820312 C 146.707031 -178.292969 148.109375 -165.65625 148.109375 -151.617188 Z M 148.109375 -151.617188 "/></g></g><g style="fill:#ffffff;fill-opacity:1;"><g transform="translate(4455.749748, 825.426506)"><path style="stroke:none" d="M 328.507812 -186.015625 C 261.121094 -86.339844 172.675781 -29.480469 124.242188 -29.480469 C 101.078125 -29.480469 91.253906 -44.222656 91.253906 -63.175781 L 91.253906 -65.28125 C 175.484375 -89.847656 275.863281 -191.628906 275.863281 -249.890625 C 275.863281 -281.476562 246.382812 -310.257812 211.285156 -310.257812 C 128.453125 -310.257812 21.058594 -150.214844 21.058594 -65.28125 C 21.058594 -14.039062 61.070312 23.164062 111.609375 23.164062 C 175.484375 23.164062 254.101562 -28.078125 348.164062 -167.765625 C 348.164062 -177.589844 335.527344 -186.015625 328.507812 -186.015625 Z M 224.621094 -262.527344 C 233.042969 -262.527344 236.554688 -258.3125 236.554688 -250.59375 C 236.554688 -216.199219 156.53125 -122.136719 98.273438 -101.078125 C 119.328125 -169.871094 186.714844 -262.527344 224.621094 -262.527344 Z M 224.621094 -262.527344 "/></g></g></g></svg>